<svg id="Layer_1" data-name="Layer 1" xmlns="http://www.w3.org/2000/svg" viewBox="0 0 10 13"><defs><style>.cls-1{fill:#333;}</style></defs><path class="cls-1" d="M5,6.36A3,3,0,0,0,7.65,3.18C7.65,1.42,7.26,0,5,0S2.35,1.42,2.35,3.18A3,3,0,0,0,5,6.36Z"/><path class="cls-1" d="M0,11.21Z"/><path class="cls-1" d="M10,11.3Z"/><path class="cls-1" d="M10,11.08C9.94,8,9.54,7.15,6.45,6.6A1.87,1.87,0,0,1,5,7.15,1.87,1.87,0,0,1,3.55,6.6C.49,7.15.06,8,0,11a1.36,1.36,0,0,1,0,.23v.32S.74,13,5,13s5-1.47,5-1.47V11.3S10,11.28,10,11.08Z"/></svg>