<svg id="Layer_1" data-name="Layer 1" xmlns="http://www.w3.org/2000/svg" xmlns:xlink="http://www.w3.org/1999/xlink" viewBox="0 0 800 400"><defs><style>.cls-1{fill:#1a1a1a;}.cls-2{mask:url(#mask);}.cls-3{fill:url(#linear-gradient);}.cls-4{filter:url(#luminosity-invert);}</style><filter id="luminosity-invert" filterUnits="userSpaceOnUse" color-interpolation-filters="sRGB"><feColorMatrix values="-1 0 0 0 1 0 -1 0 0 1 0 0 -1 0 1 0 0 0 1 0"/></filter><mask id="mask" x="0" y="-0.44" width="800" height="400.44" maskUnits="userSpaceOnUse"><g class="cls-4"><rect class="cls-1" y="181.56" width="20" height="36" rx="10"/><rect class="cls-1" x="30" y="173.64" width="20" height="51.84" rx="10"/><rect class="cls-1" x="60" y="154.77" width="20" height="89.58" rx="10"/><rect class="cls-1" x="90" y="135.06" width="20" height="128.99" rx="10"/><rect class="cls-1" x="120" y="162.23" width="20" height="74.65" rx="10"/><rect class="cls-1" x="150" y="88.11" width="20" height="222.9" rx="10"/><rect class="cls-1" x="180" y="39.07" width="20" height="320.98" rx="10"/><rect class="cls-1" x="210" y="-0.44" width="20" height="400" rx="10"/><rect class="cls-1" x="240" y="65.82" width="20" height="267.48" rx="10"/><rect class="cls-1" x="270" y="39.07" width="20" height="320.98" rx="10"/><rect class="cls-1" x="300" y="122.16" width="20" height="154.79" rx="10"/><rect class="cls-1" x="330" y="154.77" width="20" height="89.58" rx="10"/><rect class="cls-1" x="360" y="65.82" width="20" height="267.48" rx="10"/><rect class="cls-1" x="390" y="106.68" width="20" height="185.75" rx="10"/><rect class="cls-1" x="420" y="122.16" width="20" height="154.79" rx="10"/><rect class="cls-1" x="450" y="88.11" width="20" height="222.9" rx="10"/><rect class="cls-1" x="480" y="65.82" width="20" height="267.48" rx="10"/><rect class="cls-1" x="510" y="106.68" width="20" height="185.75" rx="10"/><rect class="cls-1" x="540" y="145.81" width="20" height="107.5" rx="10"/><rect class="cls-1" x="570" y="173.64" width="20" height="51.84" rx="10"/><rect class="cls-1" x="600" y="162.23" width="20" height="74.65" rx="10"/><rect class="cls-1" x="630" y="145.81" width="20" height="107.5" rx="10"/><rect class="cls-1" x="660" y="106.68" width="20" height="185.75" rx="10"/><rect class="cls-1" x="690" y="65.82" width="20" height="267.48" rx="10"/><rect class="cls-1" x="720" y="122.16" width="20" height="154.79" rx="10"/><rect class="cls-1" x="750" y="168.45" width="20" height="62.21" rx="10"/><rect class="cls-1" x="780" y="181.56" width="20" height="36" rx="10"/></g></mask><linearGradient id="linear-gradient" y1="200" x2="800" y2="200" gradientUnits="userSpaceOnUse"><stop offset="0" stop-color="#05167d" stop-opacity="0.9"/><stop offset="1" stop-color="#df4398"/></linearGradient></defs><g class="cls-2"><rect class="cls-3" width="800" height="400"/></g></svg>