<svg id="Layer_1" data-name="Layer 1" xmlns="http://www.w3.org/2000/svg" viewBox="0 0 17.88 16.68"><defs><style>.cls-1{fill:#999;}</style></defs><path class="cls-1" d="M10.39.06a.6.6,0,0,0-.63.07L4,4.77H1.19A1.19,1.19,0,0,0,0,6v4.77a1.2,1.2,0,0,0,1.19,1.19H4l5.8,4.63a.56.56,0,0,0,.37.13.6.6,0,0,0,.6-.59V.6A.61.61,0,0,0,10.39.06Z"/><path class="cls-1" d="M13.74,4.13a.6.6,0,0,0-.84,0,.61.61,0,0,0,0,.85,4.74,4.74,0,0,1,0,6.73.59.59,0,1,0,.84.84,5.94,5.94,0,0,0,0-8.42Z"/><path class="cls-1" d="M15.42,2.45a.6.6,0,0,0-.84,0,.61.61,0,0,0,0,.85,7.11,7.11,0,0,1,0,10.09.6.6,0,0,0,.42,1,.58.58,0,0,0,.42-.18,8.28,8.28,0,0,0,0-11.78Z"/></svg>