<svg id="Layer_1" data-name="Layer 1" xmlns="http://www.w3.org/2000/svg" viewBox="0 0 468 103"><defs><style>.cls-1{fill:#333;}.cls-2{fill:#df4398;}.cls-3{fill:#60c1ef;}.cls-3,.cls-4{opacity:0.9;}.cls-4{fill:#05167d;}</style></defs><path class="cls-1" d="M156.18,75.76a13,13,0,0,1-3.4,4.22,15,15,0,0,1-5.05,2.66,21,21,0,0,1-6.32.91,28.93,28.93,0,0,1-9.84-1.78,30.46,30.46,0,0,1-8.8-4.84l3.4-4.79a29.83,29.83,0,0,0,7.62,4.27,22.56,22.56,0,0,0,8,1.48A11,11,0,0,0,148.47,76a6.11,6.11,0,0,0,2.61-5.22v-.18a4.64,4.64,0,0,0-.91-2.87,8.26,8.26,0,0,0-2.49-2.14A20.91,20.91,0,0,0,144.07,64c-1.37-.46-2.77-.9-4.23-1.3-1.74-.53-3.5-1.09-5.27-1.7a21.48,21.48,0,0,1-4.79-2.31,11.7,11.7,0,0,1-3.48-3.49A9.42,9.42,0,0,1,125,49.93v-.18a12.13,12.13,0,0,1,1.13-5.27,11.74,11.74,0,0,1,3.18-4.09,14.53,14.53,0,0,1,4.88-2.61,19.85,19.85,0,0,1,6.14-.92,27.92,27.92,0,0,1,8.45,1.35,31.7,31.7,0,0,1,7.75,3.62l-3,5.05a30.15,30.15,0,0,0-6.57-3.18,21,21,0,0,0-6.75-1.18,9.89,9.89,0,0,0-6.36,1.88,5.74,5.74,0,0,0-2.36,4.66v.17a4.18,4.18,0,0,0,1,2.74A8.4,8.4,0,0,0,134.92,54a23.25,23.25,0,0,0,3.7,1.57c1.4.47,2.85.93,4.36,1.39q2.61.8,5.18,1.75a20,20,0,0,1,4.66,2.44,11.65,11.65,0,0,1,3.36,3.57,9.77,9.77,0,0,1,1.26,5.14v.17A12.47,12.47,0,0,1,156.18,75.76Z"/><path class="cls-1" d="M171.38,83.67V43.57h-6.27V37.64h6.27V24.05h6.71V83.67"/><path class="cls-1" d="M199.3,82.68h-6.71v-45h6.71V49.4a24.18,24.18,0,0,1,3-5.13,20.91,20.91,0,0,1,4.19-4.06,18,18,0,0,1,5.14-2.57,18.57,18.57,0,0,1,6-.78v7.23h-.52a18.53,18.53,0,0,0-6.93,1.31,15.74,15.74,0,0,0-5.71,3.92,18.61,18.61,0,0,0-3.83,6.49,26.29,26.29,0,0,0-1.39,8.93Z"/><path class="cls-1" d="M234.71,43.87a40.27,40.27,0,0,0-6.4,2.4l-2-5.49A45.4,45.4,0,0,1,233.88,38a34.85,34.85,0,0,1,8.8-1q9.24,0,14.2,4.58t5,13.54V82.68H255.4V75.89a22.06,22.06,0,0,1-6.32,5.4,19.24,19.24,0,0,1-10,2.35,22,22,0,0,1-6.14-.87,16.62,16.62,0,0,1-5.4-2.66,13.53,13.53,0,0,1-3.84-4.4,12.71,12.71,0,0,1-1.43-6.18,13.77,13.77,0,0,1,1.39-6.32,12.51,12.51,0,0,1,4-4.57,19.12,19.12,0,0,1,6.1-2.79,29.65,29.65,0,0,1,7.8-1,47.77,47.77,0,0,1,7.58.53,53.76,53.76,0,0,1,6.27,1.39V55.24q0-6.09-3.53-9.19T242,43A26.94,26.94,0,0,0,234.71,43.87Zm-2.15,18.52a8.13,8.13,0,0,0-3.38,6.88,7.78,7.78,0,0,0,.91,3.83,8.9,8.9,0,0,0,2.47,2.83,11.3,11.3,0,0,0,3.61,1.79,15.15,15.15,0,0,0,4.3.61,18.4,18.4,0,0,0,5.86-.92,15.71,15.71,0,0,0,4.77-2.52,12,12,0,0,0,3.21-3.84,10.28,10.28,0,0,0,1.18-4.92V61.78c-1.68-.47-3.61-.9-5.78-1.31a40.24,40.24,0,0,0-7.42-.61Q235.95,59.86,232.56,62.39Z"/><path class="cls-1" d="M306.81,37.64h6.62v45h-6.62V74.84a21.14,21.14,0,0,1-5.92,6.23,16.21,16.21,0,0,1-9.5,2.57,18.82,18.82,0,0,1-7.27-1.31,15,15,0,0,1-5.4-3.7,16.33,16.33,0,0,1-3.4-5.7,21.62,21.62,0,0,1-1.18-7.32v-28h6.71V64q0,6.27,3.22,9.93t9.24,3.66a14.19,14.19,0,0,0,5.36-1,12.05,12.05,0,0,0,4.26-2.87,14,14,0,0,0,2.84-4.49,15.48,15.48,0,0,0,1-5.75Z"/><path class="cls-1" d="M363.36,82.68V73.62a35.09,35.09,0,0,1-3.09,3.84,21.25,21.25,0,0,1-3.79,3.22,17.81,17.81,0,0,1-4.66,2.18,19.61,19.61,0,0,1-5.71.78,20.6,20.6,0,0,1-7.92-1.57,21.16,21.16,0,0,1-6.89-4.57,22.2,22.2,0,0,1-4.87-7.36,25.26,25.26,0,0,1-1.83-9.93,25.23,25.23,0,0,1,1.83-9.93,22.1,22.1,0,0,1,4.87-7.36,21.63,21.63,0,0,1,6.89-4.62,20.81,20.81,0,0,1,13.67-.83,19.41,19.41,0,0,1,4.71,2.09,20.69,20.69,0,0,1,3.79,3,27,27,0,0,1,3,3.66V19.09h6.71V82.68ZM362.27,53a16.58,16.58,0,0,0-3.66-5.46A17.25,17.25,0,0,0,353.39,44a15.17,15.17,0,0,0-6.06-1.26A16.23,16.23,0,0,0,341.15,44a14.32,14.32,0,0,0-5,3.38,16,16,0,0,0-3.4,5.46,20.07,20.07,0,0,0-1.26,7.32,19.56,19.56,0,0,0,1.26,7.2,16.94,16.94,0,0,0,3.44,5.5,14.93,14.93,0,0,0,5.05,3.51,15.52,15.52,0,0,0,6.1,1.21,15.16,15.16,0,0,0,6.06-1.25,17.25,17.25,0,0,0,5.22-3.51,16.4,16.4,0,0,0,3.66-5.51,18.47,18.47,0,0,0,1.35-7.15A18.16,18.16,0,0,0,362.27,53Z"/><path class="cls-1" d="M401.4,27.8V20.4h7.66v7.4Zm.43,54.88v-45h6.71v45Z"/><path class="cls-1" d="M466.51,69.22a23.65,23.65,0,0,1-4.92,7.54,22.93,22.93,0,0,1-7.49,5.1,23.7,23.7,0,0,1-9.41,1.87,23.09,23.09,0,0,1-9.32-1.87A23.68,23.68,0,0,1,428,76.8a22.66,22.66,0,0,1-4.88-7.45,23.73,23.73,0,0,1-1.74-9.06,24.12,24.12,0,0,1,1.74-9.1,22.91,22.91,0,0,1,12.33-12.63,23.83,23.83,0,0,1,26.26,5,22.77,22.77,0,0,1,4.88,7.45,23.8,23.8,0,0,1,1.74,9.06A23.55,23.55,0,0,1,466.51,69.22Zm-6.35-15.83a17.25,17.25,0,0,0-3.53-5.61A17,17,0,0,0,451.31,44a15.71,15.71,0,0,0-6.62-1.39A16.34,16.34,0,0,0,438,44a15,15,0,0,0-5.19,3.73,18,18,0,0,0-3.35,5.57,19.49,19.49,0,0,0,0,13.68A16.94,16.94,0,0,0,433,72.5a16.61,16.61,0,0,0,5.27,3.74,15.71,15.71,0,0,0,6.62,1.39,16.42,16.42,0,0,0,6.71-1.35,15.61,15.61,0,0,0,5.22-3.69,16.86,16.86,0,0,0,3.4-5.52,18.9,18.9,0,0,0,1.22-6.82A18.62,18.62,0,0,0,460.16,53.39Z"/><path class="cls-2" d="M80.34,28.75c-3.25,2.8-6.06,6.85-8.87,11C66.83,46.57,62,53.29,56.13,59.12A90.84,90.84,0,0,1,32.36,76C27.6,78.38,20.88,80,14.89,81A98.08,98.08,0,0,1,1.64,82.25c-.65,0-1.23.06-1.64.06,0,6.7,0,13.9,0,20.6,20.55,0,42.44-8.58,53.53-25.17,5.28-7.89,8.56-16.91,12.23-25.66C72.1,37,80.34,28.75,80.34,28.75Z"/><path class="cls-3" d="M14.89,81c6.64-1.37,12.89-3.95,17.73-8.61,8.35-8,10.73-20.23,15.21-30.92a68.13,68.13,0,0,1,22-28.63l-1,.62A78.15,78.15,0,0,0,55.62,26.69C45.32,41.11,33,61.71,0,61.71v20.6A83.37,83.37,0,0,0,14.89,81Z"/><path class="cls-4" d="M103-.09c-24.72,0-45.3,17.94-55.17,41.52C43.35,52.12,41,64.32,32.62,72.35,27.78,77,21.53,79.59,14.89,81c6-1,12.71-2.58,17.47-4.95A90.84,90.84,0,0,0,56.13,59.12C62,53.29,66.83,46.57,71.47,39.75,80.34,26.69,88.58,20.51,103,20.51Z"/><rect class="cls-1" x="382.23" y="75.59" width="7.67" height="7.41"/></svg>